<mxfile host="65bd71144e">
    <diagram id="6xCdvlb8w2iNl70_rfu1" name="Page-1">
        <mxGraphModel dx="1170" dy="1615" grid="1" gridSize="10" guides="1" tooltips="1" connect="1" arrows="1" fold="1" page="1" pageScale="1" pageWidth="850" pageHeight="1100" math="0" shadow="0">
            <root>
                <mxCell id="0"/>
                <mxCell id="1" parent="0"/>
                <mxCell id="49" style="edgeStyle=none;html=1;exitX=0.5;exitY=1;exitDx=0;exitDy=0;entryX=0.5;entryY=0;entryDx=0;entryDy=0;fontSize=9;" parent="1" source="2" target="5" edge="1">
                    <mxGeometry relative="1" as="geometry"/>
                </mxCell>
                <mxCell id="2" value="" style="rounded=1;whiteSpace=wrap;html=1;fillColor=#f0a30a;fontColor=#000000;strokeColor=#BD7000;" parent="1" vertex="1">
                    <mxGeometry x="272" y="80" width="120" height="100" as="geometry"/>
                </mxCell>
                <mxCell id="3" value="&lt;font style=&quot;font-size: 12px;&quot;&gt;Il est 10h00, tu atteris sur la planète Terre&lt;/font&gt;" style="text;html=1;strokeColor=none;fillColor=none;align=center;verticalAlign=middle;whiteSpace=wrap;rounded=0;" parent="1" vertex="1">
                    <mxGeometry x="302" y="115" width="60" height="30" as="geometry"/>
                </mxCell>
                <mxCell id="5" value="La planète semble vide, tu as deux destinations proches de toi" style="rhombus;whiteSpace=wrap;html=1;fillColor=#0050ef;fontColor=#ffffff;strokeColor=#001DBC;" parent="1" vertex="1">
                    <mxGeometry x="218" y="200" width="228" height="160" as="geometry"/>
                </mxCell>
                <mxCell id="10" value="Des créatures aliens présentes dans la maison te tuent" style="rounded=1;whiteSpace=wrap;html=1;fillColor=#a20025;fontColor=#ffffff;strokeColor=#6F0000;" parent="1" vertex="1">
                    <mxGeometry x="122" y="380" width="120" height="60" as="geometry"/>
                </mxCell>
                <mxCell id="13" value="La base est abandonnée mais tu y trouves plein de ressources" style="rounded=1;whiteSpace=wrap;html=1;fillColor=#f0a30a;fontColor=#000000;strokeColor=#BD7000;" parent="1" vertex="1">
                    <mxGeometry x="665" y="220" width="120" height="60" as="geometry"/>
                </mxCell>
                <mxCell id="16" value="&lt;font style=&quot;font-size: 9px;&quot;&gt;aller&amp;nbsp; chez toi&lt;/font&gt;" style="endArrow=classic;html=1;entryX=1;entryY=0;entryDx=0;entryDy=0;exitX=0;exitY=1;exitDx=0;exitDy=0;" parent="1" source="5" target="10" edge="1">
                    <mxGeometry width="50" height="50" relative="1" as="geometry">
                        <mxPoint x="452" y="360" as="sourcePoint"/>
                        <mxPoint x="502" y="310" as="targetPoint"/>
                    </mxGeometry>
                </mxCell>
                <mxCell id="18" value="&lt;font style=&quot;font-size: 9px;&quot;&gt;aller à la base militaire&lt;/font&gt;" style="endArrow=classic;html=1;exitX=1;exitY=1;exitDx=0;exitDy=0;entryX=0.5;entryY=0;entryDx=0;entryDy=0;" parent="1" source="5" target="13" edge="1">
                    <mxGeometry width="50" height="50" relative="1" as="geometry">
                        <mxPoint x="452" y="360" as="sourcePoint"/>
                        <mxPoint x="432" y="280" as="targetPoint"/>
                    </mxGeometry>
                </mxCell>
                <mxCell id="51" style="edgeStyle=none;html=1;exitX=0.5;exitY=1;exitDx=0;exitDy=0;entryX=0.5;entryY=0;entryDx=0;entryDy=0;fontSize=9;" parent="1" source="20" target="2" edge="1">
                    <mxGeometry relative="1" as="geometry"/>
                </mxCell>
                <mxCell id="20" value="Tu es un astronaute envoyé en mission sur une autre planète. Mais la mission prend court, tu dois retourner sur Terre en faisant un voyage retour de 3 ans. On te dit que des aliens ont envahis la terre et ont chnagé l'atmosphère. Des nuages d'acide apparaîssent désormais à 22h chaque jour. En court de route, les communications sont soudainement coupées." style="rounded=1;whiteSpace=wrap;html=1;" parent="1" vertex="1">
                    <mxGeometry x="187" y="-110" width="290" height="170" as="geometry"/>
                </mxCell>
                <mxCell id="25" value="&lt;font style=&quot;font-size: 12px;&quot;&gt;Tu trouves une carte pour aller à un camp de survivants à 9h de temps et deux véhicules disponibles&lt;/font&gt;" style="rhombus;whiteSpace=wrap;html=1;fillColor=#0050ef;fontColor=#ffffff;strokeColor=#001DBC;" parent="1" vertex="1">
                    <mxGeometry x="600" y="350" width="240" height="210" as="geometry"/>
                </mxCell>
                <mxCell id="26" value="" style="endArrow=classic;html=1;exitX=0.5;exitY=1;exitDx=0;exitDy=0;entryX=0.5;entryY=0;entryDx=0;entryDy=0;" parent="1" source="13" target="25" edge="1">
                    <mxGeometry width="50" height="50" relative="1" as="geometry">
                        <mxPoint x="582" y="430" as="sourcePoint"/>
                        <mxPoint x="632" y="380" as="targetPoint"/>
                    </mxGeometry>
                </mxCell>
                <mxCell id="27" value="&lt;font style=&quot;font-size: 9px;&quot;&gt;Prendre une mustange&lt;/font&gt;" style="endArrow=classic;html=1;entryX=0.5;entryY=0;entryDx=0;entryDy=0;" parent="1" source="25" target="31" edge="1">
                    <mxGeometry x="0.0006" width="50" height="50" relative="1" as="geometry">
                        <mxPoint x="347" y="575" as="sourcePoint"/>
                        <mxPoint x="342" y="530" as="targetPoint"/>
                        <mxPoint as="offset"/>
                    </mxGeometry>
                </mxCell>
                <mxCell id="28" value="&lt;font style=&quot;font-size: 9px;&quot;&gt;Prendre une corolla&lt;/font&gt;" style="endArrow=classic;html=1;exitX=1;exitY=1;exitDx=0;exitDy=0;entryX=0.5;entryY=0;entryDx=0;entryDy=0;" parent="1" source="25" target="29" edge="1">
                    <mxGeometry x="0.3519" y="-23" width="50" height="50" relative="1" as="geometry">
                        <mxPoint x="512" y="510" as="sourcePoint"/>
                        <mxPoint x="582" y="530" as="targetPoint"/>
                        <mxPoint as="offset"/>
                    </mxGeometry>
                </mxCell>
                <mxCell id="36" style="edgeStyle=none;html=1;exitX=0.5;exitY=1;exitDx=0;exitDy=0;fontSize=9;" parent="1" source="29" target="35" edge="1">
                    <mxGeometry relative="1" as="geometry"/>
                </mxCell>
                <mxCell id="29" value="&lt;font style=&quot;font-size: 12px;&quot;&gt;Tu arrives proche de la destination mais le réservoir se vide rapidement tu n'a plus de gas&lt;/font&gt;" style="rounded=1;whiteSpace=wrap;html=1;fillColor=#f0a30a;fontColor=#000000;strokeColor=#BD7000;" parent="1" vertex="1">
                    <mxGeometry x="590" y="610" width="160" height="60" as="geometry"/>
                </mxCell>
                <mxCell id="34" style="edgeStyle=none;html=1;exitX=0.5;exitY=1;exitDx=0;exitDy=0;entryX=0.5;entryY=0;entryDx=0;entryDy=0;fontSize=9;" parent="1" source="31" target="32" edge="1">
                    <mxGeometry relative="1" as="geometry"/>
                </mxCell>
                <mxCell id="31" value="&lt;font style=&quot;font-size: 12px;&quot;&gt;Le véhicule émet beaucoup de bruits de moteur, cela attire les créatures aliens et ils bloquent le chemin tu te retrouves coincé à mi-chemin de la destination, tu lâches ta voirture pour continuer à pied mais perd ta carte, tu va à la mémoire&lt;/font&gt;" style="rounded=1;whiteSpace=wrap;html=1;fontSize=9;fillColor=#f0a30a;fontColor=#000000;strokeColor=#BD7000;" parent="1" vertex="1">
                    <mxGeometry x="97" y="510" width="205" height="100" as="geometry"/>
                </mxCell>
                <mxCell id="44" value="Tu les affrontes pour dégager le chemin" style="edgeStyle=none;html=1;exitX=0;exitY=1;exitDx=0;exitDy=0;entryX=0.5;entryY=0;entryDx=0;entryDy=0;fontSize=9;" parent="1" source="32" target="43" edge="1">
                    <mxGeometry relative="1" as="geometry"/>
                </mxCell>
                <mxCell id="46" value="Tu fais demi-tour et trouves un détour&amp;nbsp;&amp;nbsp;" style="edgeStyle=none;html=1;exitX=1;exitY=1;exitDx=0;exitDy=0;entryX=1;entryY=0;entryDx=0;entryDy=0;fontSize=9;" parent="1" source="32" edge="1">
                    <mxGeometry relative="1" as="geometry">
                        <mxPoint x="362" y="960" as="targetPoint"/>
                    </mxGeometry>
                </mxCell>
                <mxCell id="32" value="&lt;font style=&quot;font-size: 12px;&quot;&gt;Il est 20h00, après une longue marche tu vois un groupe de créature dévorer le cadavre d'une fillette, ils bloquent le chemin.&lt;/font&gt;" style="rhombus;whiteSpace=wrap;html=1;fontSize=9;fillColor=#0050ef;fontColor=#ffffff;strokeColor=#001DBC;" parent="1" vertex="1">
                    <mxGeometry x="89.25" y="650" width="220.5" height="200" as="geometry"/>
                </mxCell>
                <mxCell id="38" value="Tu décides de la sauver" style="edgeStyle=none;html=1;exitX=0;exitY=1;exitDx=0;exitDy=0;entryX=0.5;entryY=0;entryDx=0;entryDy=0;fontSize=9;" parent="1" source="35" target="37" edge="1">
                    <mxGeometry relative="1" as="geometry"/>
                </mxCell>
                <mxCell id="40" value="Tu continue ton chemin et n'intervient pas" style="edgeStyle=none;html=1;entryX=0.5;entryY=0;entryDx=0;entryDy=0;fontSize=9;exitX=1;exitY=1;exitDx=0;exitDy=0;" parent="1" source="35" target="39" edge="1">
                    <mxGeometry relative="1" as="geometry">
                        <mxPoint x="642" y="710" as="sourcePoint"/>
                    </mxGeometry>
                </mxCell>
                <mxCell id="35" value="&lt;font style=&quot;font-size: 12px;&quot;&gt;Il est 18h00 tu&amp;nbsp; continues le chemin à pied et trouve un enfant seul se faire poursuivre par une créature&lt;/font&gt;" style="rhombus;whiteSpace=wrap;html=1;fontSize=9;fillColor=#0050ef;fontColor=#ffffff;strokeColor=#001DBC;" parent="1" vertex="1">
                    <mxGeometry x="566" y="700" width="208" height="190" as="geometry"/>
                </mxCell>
                <mxCell id="37" value="&lt;font style=&quot;font-size: 12px;&quot;&gt;Elle te remercie et elle te guide vers le camp de survivants, tu y arrive à 19h30 sans problème. Les survivants t'acceuillent dans leur groupe car tu as sauvé la gamine du camp. Tu survis.&amp;nbsp;&lt;/font&gt;" style="rounded=1;whiteSpace=wrap;html=1;fontSize=9;fillColor=#008a00;fontColor=#ffffff;strokeColor=#005700;" parent="1" vertex="1">
                    <mxGeometry x="462" y="950" width="188" height="130" as="geometry"/>
                </mxCell>
                <mxCell id="39" value="&lt;font style=&quot;font-size: 12px;&quot;&gt;La gamine se fait manger par la créature et l'odeur du cadavre attire d'autres créatures des environs vers ta position, tu te fait encercler en chemin et meurt mangé.&lt;/font&gt;" style="rounded=1;whiteSpace=wrap;html=1;fontSize=9;fillColor=#a20025;fontColor=#ffffff;strokeColor=#6F0000;" parent="1" vertex="1">
                    <mxGeometry x="710" y="970" width="110" height="160" as="geometry"/>
                </mxCell>
                <mxCell id="43" value="&lt;font style=&quot;font-size: 12px;&quot;&gt;Tu finis par mourir, ils étaient trop nombreux pour toi&lt;/font&gt;" style="rounded=1;whiteSpace=wrap;html=1;fontSize=9;fillColor=#a20025;fontColor=#ffffff;strokeColor=#6F0000;" parent="1" vertex="1">
                    <mxGeometry x="12" y="900" width="130" height="90" as="geometry"/>
                </mxCell>
                <mxCell id="45" value="&lt;font style=&quot;font-size: 12px;&quot;&gt;Tu arrives juste à temps aux portes du camp vers 21h58 mais les survivants déja inquiets de la disparition de la gamine te font pas confiance et te laisse dehors. Tu meurs brûlé par l'acide.&lt;/font&gt;" style="rounded=1;whiteSpace=wrap;html=1;fontSize=9;fillColor=#a20025;fontColor=#ffffff;strokeColor=#6F0000;" parent="1" vertex="1">
                    <mxGeometry x="260" y="950" width="180" height="140" as="geometry"/>
                </mxCell>
                <mxCell id="55" value="&lt;p style=&quot;margin: 0px; padding: 0px; user-select: text; -webkit-user-drag: none; -webkit-tap-highlight-color: transparent; overflow-wrap: break-word; font-family: &amp;quot;Segoe UI&amp;quot;, &amp;quot;Segoe UI Web&amp;quot;, Arial, Verdana, sans-serif; vertical-align: baseline; font-kerning: none; text-align: left; font-size: 18px;&quot; lang=&quot;FR-CA&quot; class=&quot;Paragraph SCXO31436214 BCX9&quot;&gt;&lt;font style=&quot;font-size: 18px;&quot; color=&quot;#ffffff&quot;&gt;&lt;span style=&quot;margin: 0px; padding: 0px; user-select: text; -webkit-user-drag: none; -webkit-tap-highlight-color: transparent; font-weight: bold; font-family: Calibri, sans-serif; line-height: 25px; font-variant-ligatures: none !important;&quot; lang=&quot;EN-US&quot; class=&quot;TextRun SCXO31436214 BCX9&quot; data-contrast=&quot;auto&quot;&gt;Genre&amp;nbsp;&lt;/span&gt;&lt;span style=&quot;margin: 0px; padding: 0px; user-select: text; -webkit-user-drag: none; -webkit-tap-highlight-color: transparent; font-family: Calibri, sans-serif; line-height: 25px; font-variant-ligatures: none !important;&quot; lang=&quot;EN-US&quot; class=&quot;TextRun SCXO31436214 BCX9&quot; data-contrast=&quot;auto&quot;&gt;: Sci-Fi, Dystopie, Aliens&lt;/span&gt;&lt;span style=&quot;margin: 0px; padding: 0px; user-select: text; -webkit-user-drag: none; -webkit-tap-highlight-color: transparent; line-height: 25px; font-family: WordVisiCarriageReturn_MSFontService, Calibri, sans-serif;&quot; class=&quot;LineBreakBlob BlobObject DragDrop SCXO31436214 BCX9&quot;&gt;&lt;span style=&quot;margin: 0px; padding: 0px; user-select: text; -webkit-user-drag: none; -webkit-tap-highlight-color: transparent;&quot; class=&quot;SCXO31436214 BCX9&quot;&gt;&amp;nbsp;&lt;/span&gt;&lt;br style=&quot;margin: 0px; padding: 0px; user-select: text; -webkit-user-drag: none; -webkit-tap-highlight-color: transparent;&quot; class=&quot;SCXO31436214 BCX9&quot;&gt;&lt;/span&gt;&lt;span style=&quot;margin: 0px; padding: 0px; user-select: text; -webkit-user-drag: none; -webkit-tap-highlight-color: transparent; font-weight: bold; font-family: Calibri, sans-serif; line-height: 25px; font-variant-ligatures: none !important;&quot; lang=&quot;EN-US&quot; class=&quot;TextRun SCXO31436214 BCX9&quot; data-contrast=&quot;auto&quot;&gt;Inspiration&amp;nbsp;&lt;/span&gt;&lt;span style=&quot;margin: 0px; padding: 0px; user-select: text; -webkit-user-drag: none; -webkit-tap-highlight-color: transparent; font-family: Calibri, sans-serif; line-height: 25px; font-variant-ligatures: none !important;&quot; lang=&quot;EN-US&quot; class=&quot;TextRun SCXO31436214 BCX9&quot; data-contrast=&quot;auto&quot;&gt;: Interstellar, The 100, The walking dead&lt;/span&gt;&lt;span style=&quot;margin: 0px; padding: 0px; user-select: text; -webkit-user-drag: none; -webkit-tap-highlight-color: transparent; line-height: 25px; font-family: WordVisiCarriageReturn_MSFontService, Calibri, sans-serif;&quot; class=&quot;LineBreakBlob BlobObject DragDrop SCXO31436214 BCX9&quot;&gt;&lt;br style=&quot;margin: 0px; padding: 0px; user-select: text; -webkit-user-drag: none; -webkit-tap-highlight-color: transparent;&quot; class=&quot;SCXO31436214 BCX9&quot;&gt;&lt;/span&gt;&lt;span style=&quot;margin: 0px; padding: 0px; user-select: text; -webkit-user-drag: none; -webkit-tap-highlight-color: transparent; font-weight: bold; font-family: Calibri, sans-serif; line-height: 25px; font-variant-ligatures: none !important;&quot; lang=&quot;EN-US&quot; class=&quot;TextRun SCXO31436214 BCX9&quot; data-contrast=&quot;auto&quot;&gt;Nom&amp;nbsp;&lt;/span&gt;&lt;span style=&quot;margin: 0px; padding: 0px; user-select: text; -webkit-user-drag: none; -webkit-tap-highlight-color: transparent; font-family: Calibri, sans-serif; line-height: 25px; font-variant-ligatures: none !important;&quot; lang=&quot;EN-US&quot; class=&quot;TextRun SCXO31436214 BCX9&quot; data-contrast=&quot;auto&quot;&gt;: Titanium&lt;/span&gt;&lt;span style=&quot;margin: 0px; padding: 0px; user-select: text; -webkit-user-drag: none; -webkit-tap-highlight-color: transparent; line-height: 25px; font-family: WordVisiCarriageReturn_MSFontService, Calibri, sans-serif;&quot; class=&quot;LineBreakBlob BlobObject DragDrop SCXO31436214 BCX9&quot;&gt;&lt;br style=&quot;margin: 0px; padding: 0px; user-select: text; -webkit-user-drag: none; -webkit-tap-highlight-color: transparent;&quot; class=&quot;SCXO31436214 BCX9&quot;&gt;&lt;/span&gt;&lt;span style=&quot;margin: 0px; padding: 0px; user-select: text; -webkit-user-drag: none; -webkit-tap-highlight-color: transparent; font-weight: bold; font-family: Calibri, sans-serif; line-height: 25px; font-variant-ligatures: none !important;&quot; lang=&quot;EN-US&quot; class=&quot;TextRun SCXO31436214 BCX9&quot; data-contrast=&quot;auto&quot;&gt;Palette&amp;nbsp;&lt;/span&gt;&lt;span style=&quot;margin: 0px; padding: 0px; user-select: text; -webkit-user-drag: none; -webkit-tap-highlight-color: transparent; font-family: Calibri, sans-serif; line-height: 25px; font-variant-ligatures: none !important;&quot; lang=&quot;EN-US&quot; class=&quot;TextRun SCXO31436214 BCX9&quot; data-contrast=&quot;auto&quot;&gt;:&amp;nbsp;&lt;/span&gt;&lt;span style=&quot;margin: 0px; padding: 0px; user-select: text; -webkit-user-drag: none; -webkit-tap-highlight-color: transparent; line-height: 25px; font-family: Calibri, sans-serif;&quot; class=&quot;EOP SCXO31436214 BCX9&quot;&gt;&amp;nbsp;&lt;/span&gt;&lt;/font&gt;&lt;/p&gt;&lt;ul style=&quot;margin: 0px; padding: 0px; user-select: text; -webkit-user-drag: none; -webkit-tap-highlight-color: transparent; overflow: visible; cursor: text; font-family: verdana; text-align: start; font-size: 18px;&quot; role=&quot;list&quot; class=&quot;BulletListStyle1 SCXO31436214 BCX9&quot;&gt;&lt;li style=&quot;margin: 0px 0px 0px 24px; padding-top: 0px; padding-bottom: 0px; user-select: text; -webkit-user-drag: none; -webkit-tap-highlight-color: transparent; overflow: visible; cursor: text; clear: both; position: relative; direction: ltr; display: block; font-family: Calibri, sans-serif; vertical-align: baseline;&quot; class=&quot;OutlineElement Ltr SCXO31436214 BCX9&quot; data-aria-level=&quot;2&quot; role=&quot;listitem&quot; data-aria-posinset=&quot;1&quot;&gt;&lt;p style=&quot;margin: 0px; padding: 0px; user-select: text; -webkit-user-drag: none; -webkit-tap-highlight-color: transparent; overflow-wrap: break-word; vertical-align: baseline; font-kerning: none;&quot; lang=&quot;FR-CA&quot; class=&quot;Paragraph SCXO31436214 BCX9&quot;&gt;&lt;font style=&quot;font-size: 18px;&quot;&gt;&lt;font style=&quot;font-size: 18px;&quot; color=&quot;#ffffff&quot;&gt;&lt;span style=&quot;margin: 0px; padding: 0px; user-select: text; -webkit-user-drag: none; -webkit-tap-highlight-color: transparent; line-height: 25px; font-variant-ligatures: none !important;&quot; lang=&quot;EN-US&quot; class=&quot;TextRun SCXO31436214 BCX9&quot; data-contrast=&quot;auto&quot;&gt;Couleur de fond du site :&amp;nbsp;&lt;/span&gt;&lt;/font&gt;&lt;span style=&quot;font-family: Consolas, &amp;quot;Courier New&amp;quot;, monospace; color: rgb(147, 146, 147);&quot;&gt;#&lt;/span&gt;&lt;span style=&quot;font-family: Consolas, &amp;quot;Courier New&amp;quot;, monospace; color: rgb(171, 157, 242);&quot;&gt;2f4550&lt;/span&gt;&lt;/font&gt;&lt;/p&gt;&lt;/li&gt;&lt;li style=&quot;margin: 0px 0px 0px 24px; padding-top: 0px; padding-bottom: 0px; user-select: text; -webkit-user-drag: none; -webkit-tap-highlight-color: transparent; overflow: visible; cursor: text; clear: both; position: relative; direction: ltr; display: block; font-family: Calibri, sans-serif; vertical-align: baseline;&quot; class=&quot;OutlineElement Ltr SCXO31436214 BCX9&quot; data-aria-level=&quot;2&quot; role=&quot;listitem&quot; data-aria-posinset=&quot;2&quot;&gt;&lt;p style=&quot;margin: 0px; padding: 0px; user-select: text; -webkit-user-drag: none; -webkit-tap-highlight-color: transparent; overflow-wrap: break-word; vertical-align: baseline; font-kerning: none;&quot; lang=&quot;FR-CA&quot; class=&quot;Paragraph SCXO31436214 BCX9&quot;&gt;&lt;font style=&quot;font-size: 18px;&quot;&gt;&lt;font style=&quot;font-size: 18px;&quot; color=&quot;#ffffff&quot;&gt;&lt;span style=&quot;margin: 0px; padding: 0px; user-select: text; -webkit-user-drag: none; -webkit-tap-highlight-color: transparent; line-height: 25px; font-variant-ligatures: none !important;&quot; lang=&quot;EN-US&quot; class=&quot;TextRun SCXO31436214 BCX9&quot; data-contrast=&quot;auto&quot;&gt;&lt;span style=&quot;margin: 0px; padding: 0px; user-select: text; -webkit-user-drag: none; -webkit-tap-highlight-color: transparent;&quot; class=&quot;NormalTextRun SCXO31436214 BCX9&quot;&gt;Couleur de fond du&amp;nbsp;&lt;/span&gt;&lt;span style=&quot;margin: 0px; padding: 0px; user-select: text; -webkit-user-drag: none; -webkit-tap-highlight-color: transparent; background-repeat: repeat-x; background-position: left bottom; background-image: url(&amp;quot;data:image/gif;base64,R0lGODlhBQAEAJECAP////8AAAAAAAAAACH5BAEAAAIALAAAAAAFAAQAAAIIlGAXCCHrTCgAOw==&amp;quot;); border-bottom: 1px solid transparent;&quot; class=&quot;SpellingError SCXO31436214 BCX9&quot;&gt;contenu&lt;/span&gt;&lt;span style=&quot;margin: 0px; padding: 0px; user-select: text; -webkit-user-drag: none; -webkit-tap-highlight-color: transparent;&quot; class=&quot;NormalTextRun SCXO31436214 BCX9&quot;&gt;&amp;nbsp;:&amp;nbsp;&lt;/span&gt;&lt;/span&gt;&lt;/font&gt;&lt;span style=&quot;font-family: Consolas, &amp;quot;Courier New&amp;quot;, monospace; color: rgb(147, 146, 147);&quot;&gt;#&lt;/span&gt;&lt;span style=&quot;font-family: Consolas, &amp;quot;Courier New&amp;quot;, monospace; color: rgb(171, 157, 242);&quot;&gt;586f7c&lt;/span&gt;&lt;/font&gt;&lt;/p&gt;&lt;/li&gt;&lt;li style=&quot;margin: 0px 0px 0px 24px; padding-top: 0px; padding-bottom: 0px; user-select: text; -webkit-user-drag: none; -webkit-tap-highlight-color: transparent; overflow: visible; cursor: text; clear: both; position: relative; direction: ltr; display: block; font-family: Calibri, sans-serif; vertical-align: baseline;&quot; class=&quot;OutlineElement Ltr SCXO31436214 BCX9&quot; data-aria-level=&quot;2&quot; role=&quot;listitem&quot; data-aria-posinset=&quot;3&quot;&gt;&lt;p style=&quot;margin: 0px; padding: 0px; user-select: text; -webkit-user-drag: none; -webkit-tap-highlight-color: transparent; overflow-wrap: break-word; vertical-align: baseline; font-kerning: none;&quot; lang=&quot;FR-CA&quot; class=&quot;Paragraph SCXO31436214 BCX9&quot;&gt;&lt;font style=&quot;font-size: 18px;&quot;&gt;&lt;font style=&quot;font-size: 18px;&quot; color=&quot;#ffffff&quot;&gt;&lt;span style=&quot;margin: 0px; padding: 0px; user-select: text; -webkit-user-drag: none; -webkit-tap-highlight-color: transparent; line-height: 25px; font-variant-ligatures: none !important;&quot; lang=&quot;EN-US&quot; class=&quot;TextRun SCXO31436214 BCX9&quot; data-contrast=&quot;auto&quot;&gt;Couleur de la police :&amp;nbsp;&lt;/span&gt;&lt;/font&gt;&lt;span style=&quot;font-family: Consolas, &amp;quot;Courier New&amp;quot;, monospace; color: rgb(147, 146, 147);&quot;&gt;#&lt;/span&gt;&lt;span style=&quot;font-family: Consolas, &amp;quot;Courier New&amp;quot;, monospace; color: rgb(171, 157, 242);&quot;&gt;b8dbd9&lt;/span&gt;&lt;/font&gt;&lt;/p&gt;&lt;/li&gt;&lt;li style=&quot;margin: 0px 0px 0px 24px; padding-top: 0px; padding-bottom: 0px; user-select: text; -webkit-user-drag: none; -webkit-tap-highlight-color: transparent; overflow: visible; cursor: text; clear: both; position: relative; direction: ltr; display: block; font-family: Calibri, sans-serif; vertical-align: baseline;&quot; class=&quot;OutlineElement Ltr SCXO31436214 BCX9&quot; data-aria-level=&quot;2&quot; role=&quot;listitem&quot; data-aria-posinset=&quot;4&quot;&gt;&lt;p style=&quot;margin: 0px; padding: 0px; user-select: text; -webkit-user-drag: none; -webkit-tap-highlight-color: transparent; overflow-wrap: break-word; vertical-align: baseline; font-kerning: none;&quot; lang=&quot;FR-CA&quot; class=&quot;Paragraph SCXO31436214 BCX9&quot;&gt;&lt;font style=&quot;font-size: 18px;&quot;&gt;&lt;font style=&quot;font-size: 18px;&quot; color=&quot;#ffffff&quot;&gt;&lt;span style=&quot;margin: 0px; padding: 0px; user-select: text; -webkit-user-drag: none; -webkit-tap-highlight-color: transparent; line-height: 25px; font-variant-ligatures: none !important;&quot; lang=&quot;EN-US&quot; class=&quot;TextRun SCXO31436214 BCX9&quot; data-contrast=&quot;auto&quot;&gt;Couleur de fond des boutons :&amp;nbsp;&lt;/span&gt;&lt;/font&gt;&lt;span style=&quot;font-family: Consolas, &amp;quot;Courier New&amp;quot;, monospace; color: rgb(147, 146, 147);&quot;&gt;#&lt;/span&gt;&lt;span style=&quot;font-family: Consolas, &amp;quot;Courier New&amp;quot;, monospace; color: rgb(171, 157, 242);&quot;&gt;586f7c&lt;/span&gt;&lt;/font&gt;&lt;/p&gt;&lt;/li&gt;&lt;li style=&quot;margin: 0px 0px 0px 24px; padding-top: 0px; padding-bottom: 0px; user-select: text; -webkit-user-drag: none; -webkit-tap-highlight-color: transparent; overflow: visible; cursor: text; clear: both; position: relative; direction: ltr; display: block; font-family: Calibri, sans-serif; vertical-align: baseline;&quot; class=&quot;OutlineElement Ltr SCXO31436214 BCX9&quot; data-aria-level=&quot;2&quot; role=&quot;listitem&quot; data-aria-posinset=&quot;5&quot;&gt;&lt;p style=&quot;margin: 0px; padding: 0px; user-select: text; -webkit-user-drag: none; -webkit-tap-highlight-color: transparent; overflow-wrap: break-word; vertical-align: baseline; font-kerning: none;&quot; lang=&quot;FR-CA&quot; class=&quot;Paragraph SCXO31436214 BCX9&quot;&gt;&lt;font style=&quot;font-size: 18px;&quot;&gt;&lt;font style=&quot;font-size: 18px;&quot; color=&quot;#ffffff&quot;&gt;&lt;span style=&quot;margin: 0px; padding: 0px; user-select: text; -webkit-user-drag: none; -webkit-tap-highlight-color: transparent; line-height: 25px; font-variant-ligatures: none !important;&quot; lang=&quot;EN-US&quot; class=&quot;TextRun SCXO31436214 BCX9&quot; data-contrast=&quot;auto&quot;&gt;&lt;span style=&quot;margin: 0px; padding: 0px; user-select: text; -webkit-user-drag: none; -webkit-tap-highlight-color: transparent;&quot; class=&quot;NormalTextRun SCXO31436214 BCX9&quot;&gt;Couleur de fond des boutons&amp;nbsp;&lt;/span&gt;&lt;span style=&quot;margin: 0px; padding: 0px; user-select: text; -webkit-user-drag: none; -webkit-tap-highlight-color: transparent; background-repeat: repeat-x; background-position: left bottom; background-image: url(&amp;quot;data:image/gif;base64,R0lGODlhBQAEAJECAP////8AAAAAAAAAACH5BAEAAAIALAAAAAAFAAQAAAIIlGAXCCHrTCgAOw==&amp;quot;); border-bottom: 1px solid transparent;&quot; class=&quot;SpellingError SCXO31436214 BCX9&quot;&gt;en&lt;/span&gt;&lt;span style=&quot;margin: 0px; padding: 0px; user-select: text; -webkit-user-drag: none; -webkit-tap-highlight-color: transparent;&quot; class=&quot;NormalTextRun SCXO31436214 BCX9&quot;&gt;&amp;nbsp;&lt;/span&gt;&lt;/span&gt;&lt;span style=&quot;margin: 0px; padding: 0px; user-select: text; -webkit-user-drag: none; -webkit-tap-highlight-color: transparent; font-style: italic; line-height: 25px; font-variant-ligatures: none !important;&quot; lang=&quot;EN-US&quot; class=&quot;TextRun SCXO31436214 BCX9&quot; data-contrast=&quot;auto&quot;&gt;hover&amp;nbsp;&lt;/span&gt;&lt;span style=&quot;margin: 0px; padding: 0px; user-select: text; -webkit-user-drag: none; -webkit-tap-highlight-color: transparent; line-height: 25px; font-variant-ligatures: none !important;&quot; lang=&quot;EN-US&quot; class=&quot;TextRun SCXO31436214 BCX9&quot; data-contrast=&quot;auto&quot;&gt;:&amp;nbsp;&lt;/span&gt;&lt;/font&gt;&lt;span style=&quot;font-family: Consolas, &amp;quot;Courier New&amp;quot;, monospace; color: rgb(147, 146, 147);&quot;&gt;#&lt;/span&gt;&lt;span style=&quot;font-family: Consolas, &amp;quot;Courier New&amp;quot;, monospace; color: rgb(171, 157, 242);&quot;&gt;b8dbd9&lt;/span&gt;&lt;/font&gt;&lt;/p&gt;&lt;/li&gt;&lt;li style=&quot;margin: 0px 0px 0px 24px; padding-top: 0px; padding-bottom: 0px; user-select: text; -webkit-user-drag: none; -webkit-tap-highlight-color: transparent; overflow: visible; cursor: text; clear: both; position: relative; direction: ltr; display: block; font-family: Calibri, sans-serif; vertical-align: baseline;&quot; class=&quot;OutlineElement Ltr SCXO31436214 BCX9&quot; data-aria-level=&quot;2&quot; role=&quot;listitem&quot; data-aria-posinset=&quot;6&quot;&gt;&lt;p style=&quot;margin: 0px; padding: 0px; user-select: text; -webkit-user-drag: none; -webkit-tap-highlight-color: transparent; overflow-wrap: break-word; vertical-align: baseline; font-kerning: none;&quot; lang=&quot;FR-CA&quot; class=&quot;Paragraph SCXO31436214 BCX9&quot;&gt;&lt;font style=&quot;font-size: 18px;&quot;&gt;&lt;font style=&quot;font-size: 18px;&quot; color=&quot;#ffffff&quot;&gt;&lt;span style=&quot;margin: 0px; padding: 0px; user-select: text; -webkit-user-drag: none; -webkit-tap-highlight-color: transparent; line-height: 25px; font-variant-ligatures: none !important;&quot; lang=&quot;EN-US&quot; class=&quot;TextRun SCXO31436214 BCX9&quot; data-contrast=&quot;auto&quot;&gt;Couleur de la police des boutons :&amp;nbsp;&lt;/span&gt;&lt;/font&gt;&lt;span style=&quot;font-family: Consolas, &amp;quot;Courier New&amp;quot;, monospace; color: rgb(147, 146, 147);&quot;&gt;#&lt;/span&gt;&lt;span style=&quot;font-family: Consolas, &amp;quot;Courier New&amp;quot;, monospace; color: rgb(171, 157, 242);&quot;&gt;f4f4f9&lt;/span&gt;&lt;/font&gt;&lt;/p&gt;&lt;/li&gt;&lt;li style=&quot;margin: 0px 0px 0px 24px; padding-top: 0px; padding-bottom: 0px; user-select: text; -webkit-user-drag: none; -webkit-tap-highlight-color: transparent; overflow: visible; cursor: text; clear: both; position: relative; direction: ltr; display: block; font-family: Calibri, sans-serif; vertical-align: baseline;&quot; class=&quot;OutlineElement Ltr  BCX9 SCXO31436214&quot; data-aria-level=&quot;2&quot; role=&quot;listitem&quot; data-aria-posinset=&quot;7&quot;&gt;&lt;p style=&quot;margin: 0px; padding: 0px; user-select: text; -webkit-user-drag: none; -webkit-tap-highlight-color: transparent; overflow-wrap: break-word; vertical-align: baseline; font-kerning: none;&quot; lang=&quot;FR-CA&quot; class=&quot;Paragraph SCXO31436214 BCX9&quot;&gt;&lt;font style=&quot;font-size: 18px;&quot;&gt;&lt;font style=&quot;font-size: 18px;&quot; color=&quot;#ffffff&quot;&gt;&lt;span style=&quot;margin: 0px; padding: 0px; user-select: text; -webkit-user-drag: none; -webkit-tap-highlight-color: transparent; line-height: 25px; font-variant-ligatures: none !important;&quot; lang=&quot;EN-US&quot; class=&quot;TextRun SCXO31436214 BCX9&quot; data-contrast=&quot;auto&quot;&gt;Couleur de la police des boutons&amp;nbsp;&lt;/span&gt;&lt;span style=&quot;margin: 0px; padding: 0px; user-select: text; -webkit-user-drag: none; -webkit-tap-highlight-color: transparent; line-height: 25px; font-variant-ligatures: none !important;&quot; lang=&quot;EN-US&quot; class=&quot;TextRun SCXO31436214 BCX9&quot; data-contrast=&quot;auto&quot;&gt;&lt;span style=&quot;margin: 0px; padding: 0px; user-select: text; -webkit-user-drag: none; -webkit-tap-highlight-color: transparent; background-repeat: repeat-x; background-position: left bottom; background-image: url(&amp;quot;data:image/gif;base64,R0lGODlhBQAEAJECAP////8AAAAAAAAAACH5BAEAAAIALAAAAAAFAAQAAAIIlGAXCCHrTCgAOw==&amp;quot;); border-bottom: 1px solid transparent;&quot; class=&quot;SpellingError SCXO31436214 BCX9&quot;&gt;en&lt;/span&gt;&lt;span style=&quot;margin: 0px; padding: 0px; user-select: text; -webkit-user-drag: none; -webkit-tap-highlight-color: transparent;&quot; class=&quot;NormalTextRun SCXO31436214 BCX9&quot;&gt;&amp;nbsp;&lt;/span&gt;&lt;/span&gt;&lt;span style=&quot;margin: 0px; padding: 0px; user-select: text; -webkit-user-drag: none; -webkit-tap-highlight-color: transparent; font-style: italic; line-height: 25px; font-variant-ligatures: none !important;&quot; lang=&quot;EN-US&quot; class=&quot;TextRun SCXO31436214 BCX9&quot; data-contrast=&quot;auto&quot;&gt;hover&lt;/span&gt;&lt;span style=&quot;margin: 0px; padding: 0px; user-select: text; -webkit-user-drag: none; -webkit-tap-highlight-color: transparent; line-height: 25px; font-variant-ligatures: none !important;&quot; lang=&quot;EN-US&quot; class=&quot;TextRun SCXO31436214 BCX9&quot; data-contrast=&quot;auto&quot;&gt;:&amp;nbsp;&lt;/span&gt;&lt;/font&gt;&lt;span style=&quot;font-family: Consolas, &amp;quot;Courier New&amp;quot;, monospace; color: rgb(147, 146, 147);&quot;&gt;#&lt;/span&gt;&lt;span style=&quot;font-family: Consolas, &amp;quot;Courier New&amp;quot;, monospace; color: rgb(171, 157, 242);&quot;&gt;000&lt;/span&gt;&lt;span style=&quot;color: rgb(255, 255, 255); background-color: initial;&quot;&gt;&amp;nbsp;&lt;/span&gt;&lt;/font&gt;&lt;/p&gt;&lt;/li&gt;&lt;/ul&gt;" style="text;html=1;strokeColor=none;fillColor=none;align=center;verticalAlign=middle;whiteSpace=wrap;rounded=0;fontSize=9;" parent="1" vertex="1">
                    <mxGeometry x="-140" y="-1100" width="860" height="620" as="geometry"/>
                </mxCell>
            </root>
        </mxGraphModel>
    </diagram>
</mxfile>